<svg width="20" height="20" viewBox="0 0 20 20" fill="none" xmlns="http://www.w3.org/2000/svg">
<path fill-rule="evenodd" clip-rule="evenodd" d="M5 0C5.55228 0 6 0.44772 6 1V2H14V1C14 0.44772 14.4477 0 15 0C15.5523 0 16 0.44772 16 1V2H17C18.6569 2 20 3.34315 20 5V12C20 12.5523 19.5523 13 19 13C18.4477 13 18 12.5523 18 12V8H2V17C2 17.5523 2.44772 18 3 18H8C8.5523 18 9 18.4477 9 19C9 19.5523 8.5523 20 8 20H3C1.34315 20 0 18.6569 0 17V5C0 3.34315 1.34315 2 3 2H4V1C4 0.44772 4.44772 0 5 0ZM3 4C2.44772 4 2 4.44772 2 5V6H18V5C18 4.44772 17.5523 4 17 4H3Z" fill="black"/>
</svg>
